<?xml version="1.0" standalone="no"?>
<!DOCTYPE svg PUBLIC "-//W3C//DTD SVG 20010904//EN"
 "http://www.w3.org/TR/2001/REC-SVG-20010904/DTD/svg10.dtd">
<svg version="1.0" xmlns="http://www.w3.org/2000/svg"
 width="128.000000pt" height="128.000000pt" viewBox="0 0 128.000000 128.000000"
 preserveAspectRatio="xMidYMid meet">
<metadata>
Created by potrace 1.11, written by Peter Selinger 2001-2013
</metadata>
<g transform="translate(0.000000,128.000000) scale(0.100000,-0.100000)"
fill="#000000" stroke="none">
<path d="M494 1240 c-258 -55 -448 -278 -458 -540 -9 -216 95 -407 284 -520
78 -47 141 -68 232 -76 85 -9 121 10 116 58 -4 42 -41 67 -103 70 -77 3 -186
49 -250 105 -34 30 -91 106 -113 149 -56 111 -51 280 12 401 30 59 140 172
168 173 4 0 6 -39 5 -87 -1 -49 2 -99 6 -113 5 -22 3 -26 -16 -27 -45 -4 -66
-14 -73 -36 -20 -57 14 -96 81 -92 23 2 47 0 53 -4 13 -8 84 -113 79 -117 -2
-2 -45 -6 -96 -7 -101 -4 -123 -15 -124 -61 0 -15 9 -36 18 -46 17 -18 32 -20
197 -20 142 0 186 -3 216 -16 54 -23 132 -44 169 -44 40 0 48 -12 23 -35 -12
-11 -20 -31 -20 -51 0 -29 15 -49 106 -143 84 -87 112 -110 141 -116 30 -5 40
-2 61 19 46 45 35 78 -57 170 -45 45 -81 85 -81 89 0 3 14 30 31 58 190 307
31 728 -316 841 -68 21 -227 32 -291 18z"/>
</g>
</svg>
